# xmcd
#
# Track frame offsets: 
#        150
#        15617
#        31230
#        50187
#        71602
#        91115
#        113882
#        127160
#        152130
#        175110
#        197430
#        218017
#        245825
#
# Disc length: 3698 seconds
#
# Revision: 0
# Processed by: cddbd v1.5.2PL0 Copyright (c) Steve Scherf et al.
# Submitted via: ExactAudioCopy v0.95b3
#
DISCID=b30e700d
DTITLE=Mighty Reapers - Trouble People
DYEAR=1996
DGENRE=Blues
TTITLE0=If It Ain't One Thing
TTITLE1=Shotgun
TTITLE2=One Way Out
TTITLE3=Bad Luck Attack
TTITLE4=Trouble People
TTITLE5=The Shunkle
TTITLE6=We're Rolling On
TTITLE7=Cold Cold Feeling
TTITLE8=You Gotta Reap
TTITLE9=Blind Love
TTITLE10=Blue Blue Blues
TTITLE11=Mistreated Woman
TTITLE12=It's A Shame
EXTD=
EXTT0=
EXTT1=
EXTT2=
EXTT3=
EXTT4=
EXTT5=
EXTT6=
EXTT7=
EXTT8=
EXTT9=
EXTT10=
EXTT11=
EXTT12=
PLAYORDER=
